<mxfile host="65bd71144e">
    <diagram id="Xlkj5Ag--m_I_bnPMBId" name="Página-1">
        <mxGraphModel dx="1768" dy="550" grid="1" gridSize="10" guides="1" tooltips="1" connect="1" arrows="1" fold="1" page="1" pageScale="1" pageWidth="827" pageHeight="1169" math="0" shadow="0">
            <root>
                <mxCell id="0"/>
                <mxCell id="1" parent="0"/>
                <mxCell id="5" value="" style="edgeStyle=none;html=1;" edge="1" parent="1" source="2" target="4">
                    <mxGeometry relative="1" as="geometry"/>
                </mxCell>
                <mxCell id="2" value="INICIO" style="ellipse;whiteSpace=wrap;html=1;" vertex="1" parent="1">
                    <mxGeometry x="120" width="120" height="80" as="geometry"/>
                </mxCell>
                <mxCell id="7" value="" style="edgeStyle=none;html=1;" edge="1" parent="1" source="4" target="6">
                    <mxGeometry relative="1" as="geometry"/>
                </mxCell>
                <mxCell id="4" value="n" style="shape=parallelogram;perimeter=parallelogramPerimeter;whiteSpace=wrap;html=1;fixedSize=1;" vertex="1" parent="1">
                    <mxGeometry x="120" y="150" width="120" height="60" as="geometry"/>
                </mxCell>
                <mxCell id="9" value="" style="edgeStyle=none;html=1;" edge="1" parent="1" source="6" target="8">
                    <mxGeometry relative="1" as="geometry"/>
                </mxCell>
                <mxCell id="6" value="n &amp;gt; 0" style="rhombus;whiteSpace=wrap;html=1;" vertex="1" parent="1">
                    <mxGeometry x="140" y="280" width="80" height="80" as="geometry"/>
                </mxCell>
                <mxCell id="8" value="&lt;br&gt;&lt;blockquote style=&quot;margin: 0 0 0 40px; border: none; padding: 0px;&quot;&gt;&lt;div style=&quot;&quot;&gt;&lt;span style=&quot;color: rgb(189, 193, 198); font-family: arial, sans-serif; font-size: 16px;&quot;&gt;el conjunto está formado por 0 elementos que se pueden combinar de una única forma, es decir, si seguimos aplicando el método que hemos seguido, obtenemos que&amp;nbsp;&lt;/span&gt;&lt;b style=&quot;color: rgb(189, 193, 198); font-family: arial, sans-serif; font-size: 16px;&quot;&gt;0!&lt;/b&gt;&lt;span style=&quot;color: rgb(189, 193, 198); font-family: arial, sans-serif; font-size: 16px;&quot;&gt;&amp;nbsp;&lt;/span&gt;&lt;b style=&quot;color: rgb(189, 193, 198); font-family: arial, sans-serif; font-size: 16px;&quot;&gt;= 1&lt;/b&gt;&lt;span style=&quot;color: rgb(189, 193, 198); font-family: arial, sans-serif; font-size: 16px;&quot;&gt;.&lt;/span&gt;&lt;/div&gt;&lt;/blockquote&gt;" style="whiteSpace=wrap;html=1;" vertex="1" parent="1">
                    <mxGeometry x="-150" y="440" width="360" height="140" as="geometry"/>
                </mxCell>
            </root>
        </mxGraphModel>
    </diagram>
</mxfile>